HIERARCHY
ROOT Pelvis
{
	OFFSET 0.000000 0.000000 0.000000
	CHANNELS 6 Xposition Yposition Zposition Zrotation Yrotation Xrotation 
	JOINT Left_hip
	{
		OFFSET 0.069463 -0.088608 -0.009542
		CHANNELS 3 Zrotation Yrotation Xrotation
		JOINT Left_knee
		{
			OFFSET 0.030639 -0.359740 -0.005288
			CHANNELS 3 Zrotation Yrotation Xrotation
			JOINT Left_ankle
			{
				OFFSET -0.011068 -0.376034 -0.042462
				CHANNELS 3 Zrotation Yrotation Xrotation
				JOINT Left_foot
				{
					OFFSET 0.023192 -0.053321 0.111332
					CHANNELS 3 Zrotation Yrotation Xrotation
					End Site
					{
						OFFSET 0.000000 0.000000 0.000000
					}
				}
			}
		}
	}
	JOINT Right_hip
	{
		OFFSET -0.067438 -0.088025 -0.006263
		CHANNELS 3 Zrotation Yrotation Xrotation
		JOINT Right_knee
		{
			OFFSET -0.035962 -0.366229 -0.008063
			CHANNELS 3 Zrotation Yrotation Xrotation
			JOINT Right_ankle
			{
				OFFSET 0.013608 -0.375719 -0.040481
				CHANNELS 3 Zrotation Yrotation Xrotation
				JOINT Right_foot
				{
					OFFSET -0.021034 -0.045527 0.114617
					CHANNELS 3 Zrotation Yrotation Xrotation
					End Site
					{
						OFFSET 0.000000 0.000000 0.000000
					}
				}
			}
		}
	}
	JOINT Spine1
	{
		OFFSET -0.002610 0.101823 -0.019986
		CHANNELS 3 Zrotation Yrotation Xrotation
		JOINT Spine2
		{
			OFFSET 0.004114 0.128714 -0.000938
			CHANNELS 3 Zrotation Yrotation Xrotation
			JOINT Spine3
			{
				OFFSET 0.002191 0.048470 0.027684
				CHANNELS 3 Zrotation Yrotation Xrotation
				JOINT Neck
				{
					OFFSET -0.002856 0.198873 -0.044022
					CHANNELS 3 Zrotation Yrotation Xrotation
					JOINT Head
					{
						OFFSET 0.002981 0.062960 0.049860
						CHANNELS 3 Zrotation Yrotation Xrotation
						End Site
						{
							OFFSET 0.000000 0.000000 0.000000
						}
					}
				}
				JOINT Left_collar
				{
					OFFSET 0.073708 0.112550 -0.033440
					CHANNELS 3 Zrotation Yrotation Xrotation
					JOINT Left_shoulder
					{
						OFFSET 0.083291 0.030786 -0.008013
						CHANNELS 3 Zrotation Yrotation Xrotation
						JOINT Left_elbow
						{
							OFFSET 0.245601 -0.011792 -0.027873
							CHANNELS 3 Zrotation Yrotation Xrotation
							JOINT Left_wrist
							{
								OFFSET 0.232258 0.008622 -0.000487
								CHANNELS 3 Zrotation Yrotation Xrotation
								JOINT Left_palm
								{
									OFFSET 0.077300 -0.009457 -0.012851
									CHANNELS 3 Zrotation Yrotation Xrotation
									End Site
									{
										OFFSET 0.000000 0.000000 0.000000
									}
								}
							}
						}
					}
				}
				JOINT Right_collar
				{
					OFFSET -0.075339 0.110574 -0.037874
					CHANNELS 3 Zrotation Yrotation Xrotation
					JOINT Right_shoulder
					{
						OFFSET -0.086522 0.031207 -0.009986
						CHANNELS 3 Zrotation Yrotation Xrotation
						JOINT Right_elbow
						{
							OFFSET -0.237313 -0.011478 -0.019859
							CHANNELS 3 Zrotation Yrotation Xrotation
							JOINT Right_wrist
							{
								OFFSET -0.237599 0.007976 -0.003742
								CHANNELS 3 Zrotation Yrotation Xrotation
								JOINT Right_palm
								{
									OFFSET -0.076920 -0.006943 -0.009920
									CHANNELS 3 Zrotation Yrotation Xrotation
									End Site
									{
										OFFSET 0.000000 0.000000 0.000000
									}
								}
							}
						}
					}
				}
			}
		}
	}
}
MOTION
Frames: 5
Frame Time: 0.100000
0.000000 0.000000 0.000000 177.413545 29.423573 -25.254501 2.429125 3.074290 15.739864 1.577972 -15.292503 -0.432836 3.103162 3.435405 -4.346540 -9.415788 9.483152 -3.058250 -1.565535 -5.972627 19.791053 -1.293685 -0.741596 -1.995834 -7.812522 -8.497382 -8.790897 14.105964 -4.403944 10.577265 0.881337 1.037628 7.757168 -0.410586 -3.474632 6.138758 -0.456123 -2.689834 -1.352817 -0.580595 -10.736608 10.507423 -2.683239 -12.142337 2.006757 -32.637775 2.037177 4.425744 -49.871385 -7.879078 4.549070 5.368691 -11.559088 7.319889 -14.049247 4.907075 -2.860903 -6.857769 -3.268125 -7.776261 32.770566 4.047205 3.097525 51.949649 4.591462 9.033595 -9.269984 9.740821 -7.325078 8.863059 -4.214076 -2.477648 10.120099 8.237799 -1.991276 
-0.000246 -0.000045 0.000246 177.239886 29.940951 -25.663643 2.482196 3.039266 16.157339 1.595273 -15.531810 -0.601545 3.588954 3.313523 -4.205483 -10.188061 9.508879 -2.986461 -1.555245 -6.083320 20.114552 -1.348295 -0.953751 -1.786283 -8.278542 -8.440036 -8.726637 14.900322 -4.751965 10.820113 0.588550 1.277057 7.553604 -0.290912 -3.431122 6.354421 -0.492858 -2.601953 -1.250729 -0.737205 -10.858698 12.610600 -2.677847 -12.268841 3.073363 -31.761601 1.579484 4.610601 -49.208238 -8.883284 4.843318 5.155142 -13.111168 8.428389 -14.801910 5.138312 -2.742949 -6.807881 -3.169846 -7.574687 32.525425 3.942216 3.220919 52.484858 4.605081 8.581234 -9.119589 8.626480 -7.524441 9.838948 -4.732237 -2.963185 10.014620 8.243149 -1.978406 
-0.001200 0.000089 -0.000723 176.799626 30.792346 -25.702374 2.442587 2.697058 15.338407 1.479701 -15.744077 0.137829 4.029246 3.213171 -4.461262 -10.825450 9.166266 -2.682398 -1.416524 -6.269398 19.695324 -1.330233 -1.359647 -1.386260 -8.738709 -8.459071 -8.785644 15.743883 -5.350153 11.079695 0.297842 1.322466 8.044652 0.115653 -3.662256 6.157511 -0.183308 -2.655148 -1.304393 -0.933126 -10.721041 12.404744 -2.502216 -12.386848 2.538239 -30.427170 1.025698 5.165144 -47.875195 -8.773962 5.969444 4.358838 -18.324136 11.893935 -14.335531 4.631538 -2.327258 -7.078085 -3.093523 -7.550443 32.358515 4.093117 3.363525 52.268250 4.172507 8.309062 -9.421332 9.341975 -6.674215 9.738580 -4.571922 -2.811915 10.076461 8.314103 -2.155950 
-0.003940 -0.001907 0.002514 176.209082 29.869100 -25.985075 2.708854 2.233998 15.255444 1.623408 -14.916006 0.821212 4.179288 4.417648 -4.830774 -10.791241 6.970265 -2.373174 -1.061853 -6.250712 19.771301 -1.165025 -1.456063 -1.575416 -9.141400 -6.658024 -8.261804 17.430228 -8.204190 11.101488 -0.219367 1.482856 7.790747 1.399782 -3.351328 5.826830 0.533273 -2.014098 -0.665291 -1.802372 -11.197176 12.979472 -2.486412 -13.053078 1.348554 -24.436114 4.382608 7.385789 -47.200295 -4.919853 10.700991 -2.332653 -43.222619 28.120181 -13.890243 0.363538 -5.661410 -7.241287 -2.169816 -6.324640 30.384262 2.609004 2.973105 52.405301 3.839280 7.343222 -10.118073 13.387614 -3.856895 9.707751 -3.739472 -3.861191 9.745882 7.850291 -2.664337 
-0.007213 -0.005116 0.008120 175.323719 26.441905 -30.964244 5.229289 3.046650 22.830831 2.401836 -16.765567 -1.726963 -6.821446 9.101562 -6.384418 4.422656 4.294400 -2.160907 -0.685790 -6.601215 27.705039 -0.582285 -1.016467 -6.393803 0.732557 -5.607930 -4.176275 10.044665 -7.525432 5.401506 -1.862587 2.926163 7.938764 4.845749 -3.241399 10.574831 1.800238 -0.639097 -0.381184 -0.557613 -6.965696 10.229153 -5.710182 -19.778023 4.358316 -17.363195 10.283672 5.874610 -36.612155 3.371618 16.620037 -67.026503 -73.397676 108.609160 -13.432269 -6.812017 6.343947 -10.442608 -2.405542 -16.050415 30.360875 -0.788257 -0.195943 51.987765 1.242844 6.322113 -24.882354 31.143614 -18.912898 4.696714 -1.779813 -10.830957 14.753323 7.591866 -8.860595 
